<?xml version="1.0" encoding="UTF-8"?>
<svg width="400" height="300" viewBox="0 0 400 300" fill="none" xmlns="http://www.w3.org/2000/svg">
    <!-- Background Elements -->
    <circle cx="200" cy="150" r="120" fill="#E8F5E9" opacity="0.5"/>
    <circle cx="180" cy="130" r="80" fill="#C8E6C9" opacity="0.3"/>
    
    <!-- Android Logo -->
    <path d="M200 80 L220 100 L180 100 Z" fill="#3DDC84"/> <!-- Head -->
    <rect x="185" y="100" width="30" height="40" rx="5" fill="#3DDC84"/> <!-- Body -->
    <rect x="175" y="110" width="8" height="25" rx="4" fill="#3DDC84"/> <!-- Left Arm -->
    <rect x="217" y="110" width="8" height="25" rx="4" fill="#3DDC84"/> <!-- Right Arm -->
    <rect x="185" y="140" width="12" height="20" rx="4" fill="#3DDC84"/> <!-- Left Leg -->
    <rect x="203" y="140" width="12" height="20" rx="4" fill="#3DDC84"/> <!-- Right Leg -->
    
    <!-- Eyes -->
    <circle cx="190" cy="90" r="2" fill="white"/>
    <circle cx="210" cy="90" r="2" fill="white"/>
    
    <!-- Code Elements -->
    <rect x="260" y="90" width="80" height="10" rx="5" fill="#2563eb" opacity="0.7"/>
    <rect x="260" y="110" width="60" height="10" rx="5" fill="#2563eb" opacity="0.5"/>
    <rect x="260" y="130" width="70" height="10" rx="5" fill="#2563eb" opacity="0.3"/>
    
    <!-- Mobile Device Frame -->
    <rect x="60" y="90" width="80" height="140" rx="10" fill="#2563eb"/>
    <rect x="65" y="95" width="70" height="130" rx="8" fill="white"/>
    
    <!-- App Elements -->
    <rect x="75" y="105" width="50" height="8" rx="4" fill="#2563eb" opacity="0.2"/>
    <rect x="75" y="120" width="40" height="8" rx="4" fill="#2563eb" opacity="0.2"/>
    <circle cx="85" cy="140" r="10" fill="#2563eb" opacity="0.2"/>
    <circle cx="115" cy="140" r="10" fill="#2563eb" opacity="0.2"/>
    
    <!-- Decorative Elements -->
    <circle cx="320" cy="200" r="5" fill="#2563eb" opacity="0.5"/>
    <circle cx="80" cy="60" r="3" fill="#2563eb" opacity="0.5"/>
    <circle cx="330" cy="80" r="4" fill="#2563eb" opacity="0.5"/>
</svg>
